<svg xmlns="http://www.w3.org/2000/svg" version="1.1" xmlns:xlink="http://www.w3.org/1999/xlink" xmlns:svgjs="http://svgjs.com/svgjs" width="500" height="500" preserveAspectRatio="none" viewBox="0 0 500 500"><g mask="url(&quot;#SvgjsMask1025&quot;)" fill="none"><path d="M20.984,71.541C38.897,72.124,55.322,61.502,64.081,45.866C72.648,30.573,72.573,11.397,62.841,-3.182C53.987,-16.446,36.901,-19.682,20.984,-18.696C6.961,-17.827,-5.342,-10.43,-12.761,1.501C-20.68,14.237,-24.019,29.697,-17.51,43.208C-10.098,58.592,3.917,70.985,20.984,71.541" fill="rgba(180, 161, 201, 1)" class="triangle-float2"></path><path d="M110.775,239.194C158.715,243.265,209.203,223.139,232.15,180.851C254.333,139.969,236.761,91.719,212.247,52.19C189.346,15.262,154.157,-12.389,110.775,-14.865C62.591,-17.615,8.887,-3.698,-12.963,39.335C-33.667,80.112,-3.55,123.999,20.524,162.882C42.751,198.783,68.701,235.621,110.775,239.194" fill="rgba(180, 161, 201, 1)" class="triangle-float1"></path><path d="M29.949,76.234C47.566,75.901,64.77,70.321,74.877,55.888C86.79,38.876,94.432,16.697,84.359,-1.465C74.078,-20.002,51.133,-25.856,29.949,-25.12C10.174,-24.433,-8.364,-15.02,-18.286,2.1C-28.236,19.268,-28.839,41.01,-18.017,57.642C-7.994,73.047,11.573,76.581,29.949,76.234" fill="rgba(180, 161, 201, 1)" class="triangle-float2"></path><path d="M501.118,225.668C543.574,226.688,577.115,194.033,598.313,157.234C619.467,120.51,628.854,76.291,608.614,39.055C587.557,0.315,545.175,-23.364,501.118,-21.58C459.713,-19.903,426.627,10.319,407.713,47.19C390.488,80.769,394.191,119.312,411.69,152.749C430.805,189.274,459.906,224.678,501.118,225.668" fill="rgba(180, 161, 201, 1)" class="triangle-float3"></path><path d="M429.631,80.085C448.513,81.051,467.124,73.086,477.336,57.174C488.404,39.927,490.758,17.992,481.069,-0.066C470.866,-19.081,451.201,-32.376,429.631,-31.73C408.974,-31.111,392.109,-15.816,383.271,2.865C375.595,19.089,380.452,37.304,389.69,52.692C398.596,67.527,412.351,79.201,429.631,80.085" fill="rgba(180, 161, 201, 1)" class="triangle-float1"></path><path d="M532.792,252.96C585.717,256.769,649.568,261.479,676.596,215.817C703.846,169.78,670.31,115.06,640.85,70.405C615.242,31.589,579.277,-0.897,532.792,-2.159C484.21,-3.478,437.845,21.86,414.072,64.249C390.77,105.798,395.5,157.092,420.867,197.413C444.638,235.198,488.266,249.755,532.792,252.96" fill="rgba(180, 161, 201, 1)" class="triangle-float3"></path><path d="M83.566,592.477C121.05,590.941,153.281,567.098,170.696,533.87C186.9,502.953,184.178,465.744,165.414,436.31C147.992,408.982,115.975,397.367,83.566,397.196C50.8,397.023,18.919,408.541,0.205,435.437C-21.727,466.959,-34.883,507.639,-16.878,541.557C1.986,577.094,43.367,594.124,83.566,592.477" fill="rgba(180, 161, 201, 1)" class="triangle-float2"></path><path d="M62.635,540.465C89.764,539.195,112.599,522.832,126.78,499.669C141.733,475.245,149.639,445.444,136.339,420.082C122.203,393.125,93.064,376.606,62.635,377.345C33.352,378.057,9.687,398.242,-5.116,423.519C-20.109,449.121,-27.702,480.532,-12.829,506.204C2.014,531.824,33.058,541.849,62.635,540.465" fill="rgba(180, 161, 201, 1)" class="triangle-float3"></path><path d="M64.238,547.467C94.804,548.11,125.795,535.062,140.226,508.109C154.041,482.308,143.415,452.319,128.739,426.998C114.119,401.774,93.388,377.532,64.238,377.008C34.399,376.471,10.007,398.474,-4.412,424.603C-18.298,449.767,-20.426,479.934,-6.407,505.024C7.955,530.728,34.801,546.848,64.238,547.467" fill="rgba(180, 161, 201, 1)" class="triangle-float2"></path><path d="M458.306,548.979C487.18,546.711,502.172,517.006,515.018,491.048C525.996,468.864,532.31,444.118,521.128,422.036C508.843,397.775,485.494,379.632,458.306,379.057C430.21,378.463,405.34,395.286,390.71,419.279C375.387,444.408,370.126,475.263,383.729,501.363C398.339,529.396,426.791,551.455,458.306,548.979" fill="rgba(180, 161, 201, 1)" class="triangle-float1"></path><path d="M460.573,529.319C484.966,528.518,507.143,515.642,519.353,494.51C531.57,473.366,531.433,447.832,520.174,426.162C507.894,402.528,487.205,381.716,460.573,381.38C433.491,381.038,411.578,401.013,398.31,424.625C385.347,447.693,381.177,475.86,394.703,498.603C407.976,520.92,434.621,530.171,460.573,529.319" fill="rgba(180, 161, 201, 1)" class="triangle-float2"></path><path d="M515.036,626.559C558.478,628.119,603.739,616.375,627.415,579.918C653.067,540.42,653.203,489.623,630.909,448.137C607.349,404.295,564.728,367.983,515.036,370.797C468.487,373.433,440.458,418.26,419.864,460.089C402.142,496.085,395.904,537.488,415.817,572.32C435.867,607.391,474.664,625.109,515.036,626.559" fill="rgba(180, 161, 201, 1)" class="triangle-float3"></path></g><defs><mask id="SvgjsMask1025"><rect width="500" height="500" fill="#ffffff"></rect></mask><style>
            @keyframes float1 {
                0%{transform: translate(0, 0)}
                50%{transform: translate(-10px, 0)}
                100%{transform: translate(0, 0)}
            }

            .triangle-float1 {
                animation: float1 5s infinite;
            }

            @keyframes float2 {
                0%{transform: translate(0, 0)}
                50%{transform: translate(-5px, -5px)}
                100%{transform: translate(0, 0)}
            }

            .triangle-float2 {
                animation: float2 4s infinite;
            }

            @keyframes float3 {
                0%{transform: translate(0, 0)}
                50%{transform: translate(0, -10px)}
                100%{transform: translate(0, 0)}
            }

            .triangle-float3 {
                animation: float3 6s infinite;
            }
        </style></defs></svg>