<svg xmlns="http://www.w3.org/2000/svg" version="1.1" xmlns:xlink="http://www.w3.org/1999/xlink" xmlns:svgjs="http://svgjs.com/svgjs" width="1440" height="600" preserveAspectRatio="none" viewBox="0 0 1440 600"><g mask="url(&quot;#SvgjsMask1001&quot;)" fill="none"><rect width="1440" height="600" x="0" y="0" fill="rgba(250, 250, 250, 1)"></rect><path d="M1194.956,348.618C1248.739,347.156,1299.987,322.387,1326.72,275.696C1353.296,229.28,1349.418,172.202,1322.389,126.048C1295.661,80.407,1247.84,49.847,1194.956,50.694C1143.405,51.519,1101.651,86.251,1074.399,130.018C1045.11,177.056,1023.414,234.691,1050.173,283.212C1077.583,332.914,1138.218,350.16,1194.956,348.618" fill="rgba(180, 161, 201, 1)" class="triangle-float1"></path><path d="M660.724,322.665C693.644,322.504,723.259,303.687,739.674,275.151C756.042,246.696,755.625,212.618,740.905,183.276C724.319,150.213,697.683,119.298,660.724,117.773C621.671,116.161,585.891,141.297,568.196,176.148C551.937,208.172,561.249,245.562,580.426,275.929C598.15,303.994,627.531,322.827,660.724,322.665" fill="rgba(180, 161, 201, 1)" class="triangle-float2"></path><path d="M859.962,679.131C906.514,678.709,938.649,638.373,962.019,598.11C985.516,557.629,1003.837,510.121,982.132,468.652C959.164,424.768,909.493,403.071,859.962,403.116C810.514,403.161,761.498,425.271,738.174,468.873C715.905,510.503,730.983,559.136,754.647,599.99C778.237,640.716,812.899,679.558,859.962,679.131" fill="rgba(180, 161, 201, 1)" class="triangle-float3"></path><path d="M57.396,277.282C90.844,276.172,118.836,253.31,134.114,223.535C148.095,196.287,144.985,164.02,128.876,137.973C113.62,113.306,86.381,100.524,57.396,99.49C26.195,98.376,-6.217,106.537,-23.504,132.535C-42.602,161.256,-45.504,198.829,-28.677,228.937C-11.47,259.725,22.145,278.452,57.396,277.282" fill="rgba(180, 161, 201, 1)" class="triangle-float3"></path><path d="M955.368,350.397C1007.782,348.421,1040.61,298.614,1064.049,251.692C1084.528,210.696,1088.869,164.66,1068.707,123.508C1045.598,76.339,1007.78,33.326,955.368,29.862C897.628,26.046,840.108,55.613,812.726,106.59C786.521,155.377,803.541,212.657,831.507,260.456C859.123,307.658,900.72,352.457,955.368,350.397" fill="rgba(180, 161, 201, 1)" class="triangle-float3"></path><path d="M930.078,437.78C965.747,438.699,1002.763,426.296,1020.475,395.322C1038.087,364.523,1030.15,326.269,1010.879,296.48C993.306,269.315,962.418,256.537,930.078,255.584C895.647,254.569,858.548,262.07,840.585,291.462C822.023,321.835,828.828,360.499,847.401,390.865C865.122,419.837,896.127,436.906,930.078,437.78" fill="rgba(180, 161, 201, 1)" class="triangle-float3"></path><path d="M93.165,441.49C126.75,442.062,147.008,408.071,162.984,378.523C177.923,350.893,189.956,318.599,174.348,291.342C158.671,263.964,124.712,256.936,93.165,256.595C60.835,256.245,24.469,261.225,8.882,289.552C-6.379,317.287,11.988,348.532,27.344,376.214C43.409,405.176,60.051,440.926,93.165,441.49" fill="rgba(180, 161, 201, 1)" class="triangle-float3"></path><path d="M61.247,469.816C107.684,473.195,159.384,466.646,184.486,427.432C211.055,385.926,204.558,330.256,176.529,289.722C151.7,253.814,104.903,249.09,61.247,249.206C17.875,249.322,-30.955,252.967,-52.976,290.333C-75.212,328.063,-57.915,374.554,-34.402,411.502C-12.914,445.266,21.331,466.911,61.247,469.816" fill="rgba(180, 161, 201, 1)" class="triangle-float2"></path><path d="M1048.608,170.45C1085.586,168.455,1114.895,143.346,1133.916,111.572C1153.594,78.701,1164.624,39.493,1147.532,5.206C1128.686,-32.599,1090.739,-62.614,1048.608,-59.557C1009.717,-56.735,991.024,-15.95,971.776,17.961C952.908,51.203,928.512,87.592,945.711,121.728C964.013,158.053,1007.992,172.642,1048.608,170.45" fill="rgba(180, 161, 201, 1)" class="triangle-float2"></path><path d="M351.027,431.784C388.008,430.354,417.65,405.869,437.374,374.554C458.846,340.464,475.531,299.291,457.017,263.508C437.349,225.495,393.822,207.029,351.027,207.669C309.366,208.292,270.945,230.356,250.385,266.596C230.088,302.371,230.886,346.583,252.287,381.709C272.866,415.487,311.504,433.312,351.027,431.784" fill="rgba(180, 161, 201, 1)" class="triangle-float2"></path><path d="M867.131,370.806C883.794,371.102,896.429,357.171,904.121,342.386C911.166,328.844,911.345,313.119,904.147,299.658C896.483,285.325,883.376,272.713,867.131,273.211C851.46,273.692,840.998,287.861,833.85,301.815C827.444,314.32,826.242,328.457,832.346,341.112C839.445,355.829,850.794,370.516,867.131,370.806" fill="rgba(180, 161, 201, 1)" class="triangle-float1"></path><path d="M173.688,628.898C223.309,631.232,276.298,617.865,302.012,575.362C328.443,531.674,319.095,476.261,292.346,432.767C266.928,391.437,222.208,366.598,173.688,366.705C125.359,366.812,79.286,390.976,55.935,433.289C33.286,474.329,40.522,524.04,64.697,564.2C88.051,602.995,128.456,626.771,173.688,628.898" fill="rgba(180, 161, 201, 1)" class="triangle-float3"></path><path d="M190.617,234.318C224.095,233.141,250.872,210.11,267.948,181.29C285.436,151.775,294.446,116.275,278.585,85.855C261.632,53.34,227.286,32.947,190.617,32.975C153.995,33.003,120.945,54.132,102.885,85.991C85.074,117.41,84.872,155.995,103.258,187.08C121.321,217.619,155.158,235.565,190.617,234.318" fill="rgba(180, 161, 201, 1)" class="triangle-float1"></path><path d="M492.604,162.484C529.988,161.669,553.274,126.348,571.484,93.689C589.05,62.184,603.224,25.889,586.622,-6.134C568.929,-40.261,531.044,-58.734,492.604,-58.456C454.649,-58.181,419.112,-38.098,400.915,-4.789C383.399,27.274,389.972,65.224,407.534,97.263C425.942,130.846,454.316,163.319,492.604,162.484" fill="rgba(180, 161, 201, 1)" class="triangle-float3"></path><path d="M1468.199,341.745C1513.482,338.878,1550.098,309.157,1572.982,269.976C1596.106,230.385,1607.435,182.033,1584.756,142.186C1561.88,101.993,1514.372,88.481,1468.199,85.872C1415.46,82.892,1355.335,83.422,1326.353,127.585C1295.442,174.688,1306.489,237.911,1337.6,284.882C1365.701,327.31,1417.411,344.961,1468.199,341.745" fill="rgba(180, 161, 201, 1)" class="triangle-float2"></path></g><defs><mask id="SvgjsMask1001"><rect width="1440" height="600" fill="#ffffff"></rect></mask><style>
            @keyframes float1 {
                0%{transform: translate(0, 0)}
                50%{transform: translate(-10px, 0)}
                100%{transform: translate(0, 0)}
            }

            .triangle-float1 {
                animation: float1 5s infinite;
            }

            @keyframes float2 {
                0%{transform: translate(0, 0)}
                50%{transform: translate(-5px, -5px)}
                100%{transform: translate(0, 0)}
            }

            .triangle-float2 {
                animation: float2 4s infinite;
            }

            @keyframes float3 {
                0%{transform: translate(0, 0)}
                50%{transform: translate(0, -10px)}
                100%{transform: translate(0, 0)}
            }

            .triangle-float3 {
                animation: float3 6s infinite;
            }
        </style></defs></svg>