<svg width="49" height="48" viewBox="0 0 49 48" fill="none" xmlns="http://www.w3.org/2000/svg">
<path d="M24.0024 0.00466722C11.0317 -0.251058 0.298598 10.0338 0.00244141 23.0024C0.0362852 29.6039 2.95969 35.8596 8.00241 40.1207V47.0001C8.00241 47.5523 8.45016 48 9.00244 48C9.18985 48 9.3735 47.9473 9.53241 47.848L15.1064 44.3664C17.9463 45.4525 20.9619 46.0063 24.0024 46.0002C36.9732 46.256 47.7063 35.9711 48.0024 23.0025C47.7063 10.0338 36.9732 -0.251058 24.0024 0.00466722Z" fill="#2196F3"/>
<path d="M39.8021 17.202C39.5045 16.8033 38.959 16.6839 38.5221 16.922L28.1221 22.5915L21.6522 17.044C21.2554 16.7039 20.6637 16.7265 20.2942 17.096L8.29419 29.0948C7.90484 29.4865 7.90672 30.1196 8.2985 30.5089C8.61172 30.8202 9.092 30.8892 9.48022 30.6787L19.8802 25.0092L26.3562 30.5587C26.7529 30.8988 27.3447 30.8762 27.7141 30.5067L39.7141 18.5078C40.0638 18.1549 40.1013 17.5987 39.8021 17.202Z" fill="#FAFAFA"/>
</svg>
