<svg xmlns="http://www.w3.org/2000/svg" version="1.1" xmlns:xlink="http://www.w3.org/1999/xlink" xmlns:svgjs="http://svgjs.com/svgjs" width="200" height="400" preserveAspectRatio="none" viewBox="0 0 200 400"><g mask="url(&quot;#SvgjsMask1099&quot;)" fill="none"><path d="M183 121L71 233" stroke-width="8" stroke="url(#SvgjsLinearGradient1100)" stroke-linecap="round" class="TopRight"></path><path d="M40 356L179 217" stroke-width="8" stroke="url(#SvgjsLinearGradient1101)" stroke-linecap="round" class="BottomLeft"></path><path d="M113 336L60 389" stroke-width="6" stroke="url(#SvgjsLinearGradient1100)" stroke-linecap="round" class="TopRight"></path><path d="M13 59L157 -85" stroke-width="8" stroke="url(#SvgjsLinearGradient1101)" stroke-linecap="round" class="BottomLeft"></path><path d="M164 105L104 165" stroke-width="6" stroke="url(#SvgjsLinearGradient1100)" stroke-linecap="round" class="TopRight"></path><path d="M123 218L64 277" stroke-width="6" stroke="url(#SvgjsLinearGradient1101)" stroke-linecap="round" class="BottomLeft"></path><path d="M176 77L258 -5" stroke-width="6" stroke="url(#SvgjsLinearGradient1100)" stroke-linecap="round" class="TopRight"></path><path d="M139 126L65 200" stroke-width="8" stroke="url(#SvgjsLinearGradient1101)" stroke-linecap="round" class="BottomLeft"></path><path d="M9 139L-50 198" stroke-width="8" stroke="url(#SvgjsLinearGradient1100)" stroke-linecap="round" class="TopRight"></path><path d="M121 133L252 2" stroke-width="6" stroke="url(#SvgjsLinearGradient1101)" stroke-linecap="round" class="BottomLeft"></path><path d="M47 292L-83 422" stroke-width="8" stroke="url(#SvgjsLinearGradient1101)" stroke-linecap="round" class="BottomLeft"></path><path d="M68 80L-45 193" stroke-width="10" stroke="url(#SvgjsLinearGradient1100)" stroke-linecap="round" class="TopRight"></path></g><defs><mask id="SvgjsMask1099"><rect width="200" height="400" fill="#ffffff"></rect></mask><linearGradient x1="0%" y1="100%" x2="100%" y2="0%" id="SvgjsLinearGradient1100"><stop stop-color="rgba(76, 65, 119, 0)" offset="0"></stop><stop stop-color="rgba(76, 65, 119, 1)" offset="1"></stop></linearGradient><linearGradient x1="100%" y1="0%" x2="0%" y2="100%" id="SvgjsLinearGradient1101"><stop stop-color="rgba(76, 65, 119, 0)" offset="0"></stop><stop stop-color="rgba(76, 65, 119, 1)" offset="1"></stop></linearGradient></defs></svg>