<svg xmlns="http://www.w3.org/2000/svg" version="1.1" xmlns:xlink="http://www.w3.org/1999/xlink" xmlns:svgjs="http://svgjs.com/svgjs" width="300" height="400" preserveAspectRatio="none" viewBox="0 0 300 400"><g mask="url(&quot;#SvgjsMask1141&quot;)" fill="none"><path d="M185 396L282 299" stroke-width="6" stroke="url(#SvgjsLinearGradient1142)" stroke-linecap="round" class="BottomLeft"></path><path d="M247 46L160 133" stroke-width="10" stroke="url(#SvgjsLinearGradient1142)" stroke-linecap="round" class="BottomLeft"></path><path d="M220 259L410 69" stroke-width="10" stroke="url(#SvgjsLinearGradient1142)" stroke-linecap="round" class="BottomLeft"></path><path d="M280 333L403 210" stroke-width="8" stroke="url(#SvgjsLinearGradient1142)" stroke-linecap="round" class="BottomLeft"></path><path d="M12 305L231 86" stroke-width="8" stroke="url(#SvgjsLinearGradient1142)" stroke-linecap="round" class="BottomLeft"></path><path d="M57 398L210 245" stroke-width="6" stroke="url(#SvgjsLinearGradient1142)" stroke-linecap="round" class="BottomLeft"></path><path d="M142 100L36 206" stroke-width="10" stroke="url(#SvgjsLinearGradient1142)" stroke-linecap="round" class="BottomLeft"></path><path d="M94 73L-121 288" stroke-width="8" stroke="url(#SvgjsLinearGradient1143)" stroke-linecap="round" class="TopRight"></path><path d="M61 309L-145 515" stroke-width="10" stroke="url(#SvgjsLinearGradient1142)" stroke-linecap="round" class="BottomLeft"></path><path d="M137 29L289 -123" stroke-width="8" stroke="url(#SvgjsLinearGradient1143)" stroke-linecap="round" class="TopRight"></path><path d="M242 215L105 352" stroke-width="8" stroke="url(#SvgjsLinearGradient1142)" stroke-linecap="round" class="BottomLeft"></path><path d="M283 179L104 358" stroke-width="8" stroke="url(#SvgjsLinearGradient1142)" stroke-linecap="round" class="BottomLeft"></path><path d="M4 360L161 203" stroke-width="6" stroke="url(#SvgjsLinearGradient1143)" stroke-linecap="round" class="TopRight"></path></g><defs><mask id="SvgjsMask1141"><rect width="300" height="400" fill="#ffffff"></rect></mask><linearGradient x1="100%" y1="0%" x2="0%" y2="100%" id="SvgjsLinearGradient1142"><stop stop-color="rgba(76, 65, 119, 0)" offset="0"></stop><stop stop-color="rgba(76, 65, 119, 1)" offset="1"></stop></linearGradient><linearGradient x1="0%" y1="100%" x2="100%" y2="0%" id="SvgjsLinearGradient1143"><stop stop-color="rgba(76, 65, 119, 0)" offset="0"></stop><stop stop-color="rgba(76, 65, 119, 1)" offset="1"></stop></linearGradient></defs></svg>