<svg xmlns="http://www.w3.org/2000/svg" version="1.1" xmlns:xlink="http://www.w3.org/1999/xlink" xmlns:svgjs="http://svgjs.com/svgjs" width="400" height="600" preserveAspectRatio="none" viewBox="0 0 400 600"><g mask="url(&quot;#SvgjsMask1090&quot;)" fill="none"><path d="M81 242L-83 406" stroke-width="8" stroke="url(#SvgjsLinearGradient1091)" stroke-linecap="round" class="TopRight"></path><path d="M384 141L538 -13" stroke-width="8" stroke="url(#SvgjsLinearGradient1091)" stroke-linecap="round" class="TopRight"></path><path d="M205 97L-22 324" stroke-width="8" stroke="url(#SvgjsLinearGradient1092)" stroke-linecap="round" class="BottomLeft"></path><path d="M178 156L455 -121" stroke-width="8" stroke="url(#SvgjsLinearGradient1091)" stroke-linecap="round" class="TopRight"></path><path d="M361 176L143 394" stroke-width="8" stroke="url(#SvgjsLinearGradient1091)" stroke-linecap="round" class="TopRight"></path><path d="M303 304L100 507" stroke-width="10" stroke="url(#SvgjsLinearGradient1092)" stroke-linecap="round" class="BottomLeft"></path><path d="M325 271L594 2" stroke-width="10" stroke="url(#SvgjsLinearGradient1091)" stroke-linecap="round" class="TopRight"></path><path d="M142 144L36 250" stroke-width="8" stroke="url(#SvgjsLinearGradient1091)" stroke-linecap="round" class="TopRight"></path><path d="M130 469L355 244" stroke-width="6" stroke="url(#SvgjsLinearGradient1092)" stroke-linecap="round" class="BottomLeft"></path><path d="M118 585L282 421" stroke-width="6" stroke="url(#SvgjsLinearGradient1091)" stroke-linecap="round" class="TopRight"></path><path d="M96 546L329 313" stroke-width="6" stroke="url(#SvgjsLinearGradient1091)" stroke-linecap="round" class="TopRight"></path><path d="M338 89L59 368" stroke-width="8" stroke="url(#SvgjsLinearGradient1092)" stroke-linecap="round" class="BottomLeft"></path><path d="M34 146L197 -17" stroke-width="10" stroke="url(#SvgjsLinearGradient1091)" stroke-linecap="round" class="TopRight"></path><path d="M273 434L561 146" stroke-width="8" stroke="url(#SvgjsLinearGradient1092)" stroke-linecap="round" class="BottomLeft"></path><path d="M377 471L676 172" stroke-width="10" stroke="url(#SvgjsLinearGradient1091)" stroke-linecap="round" class="TopRight"></path><path d="M25 574L205 394" stroke-width="6" stroke="url(#SvgjsLinearGradient1091)" stroke-linecap="round" class="TopRight"></path><path d="M394 62L272 184" stroke-width="8" stroke="url(#SvgjsLinearGradient1091)" stroke-linecap="round" class="TopRight"></path><path d="M158 216L385 -11" stroke-width="6" stroke="url(#SvgjsLinearGradient1091)" stroke-linecap="round" class="TopRight"></path><path d="M234 194L420 8" stroke-width="10" stroke="url(#SvgjsLinearGradient1092)" stroke-linecap="round" class="BottomLeft"></path></g><defs><mask id="SvgjsMask1090"><rect width="400" height="600" fill="#ffffff"></rect></mask><linearGradient x1="0%" y1="100%" x2="100%" y2="0%" id="SvgjsLinearGradient1091"><stop stop-color="rgba(76, 65, 119, 0)" offset="0"></stop><stop stop-color="rgba(76, 65, 119, 1)" offset="1"></stop></linearGradient><linearGradient x1="100%" y1="0%" x2="0%" y2="100%" id="SvgjsLinearGradient1092"><stop stop-color="rgba(76, 65, 119, 0)" offset="0"></stop><stop stop-color="rgba(76, 65, 119, 1)" offset="1"></stop></linearGradient></defs></svg>