<svg width="43" height="46" viewBox="0 0 43 46" fill="none" xmlns="http://www.w3.org/2000/svg">
<path d="M41.7813 10.156C41.0003 7.36701 39.4533 5.16401 37.1883 3.60601C34.3283 1.63301 31.0393 0.938009 28.1993 0.512009C24.2693 -0.073991 20.7113 -0.155991 17.3163 0.258009C14.1363 0.648009 11.7423 1.27001 9.55929 2.27301C5.27729 4.24301 2.70729 7.42601 1.92229 11.734C1.56321 13.6497 1.29956 15.5821 1.13229 17.524C0.789287 21.695 1.10229 25.387 2.08629 28.809C3.04629 32.145 4.72329 34.527 7.21129 36.094C7.84429 36.492 8.65629 36.781 9.44129 37.059C9.88729 37.215 10.3213 37.367 10.6763 37.535C11.0043 37.688 11.0043 37.715 11.0003 37.988C10.9733 40.359 11.0003 45.008 11.0003 45.008L11.0083 46H12.7893L13.0793 45.719C13.2693 45.539 17.6843 41.273 19.2583 39.555L19.4733 39.316C19.7433 39.004 19.7433 39.004 20.0203 39C22.1453 38.957 24.3163 38.875 26.4733 38.758C29.0863 38.618 32.1133 38.363 34.9653 37.176C37.5753 36.086 39.4803 34.356 40.6253 32.036C41.8203 29.613 42.5273 26.992 42.7933 24.02C43.2623 18.793 42.9303 14.258 41.7813 10.156ZM32.3833 30.48C31.7273 31.547 30.7503 32.29 29.5983 32.77C28.7543 33.121 27.8953 33.047 27.0633 32.695C20.0983 29.746 14.6333 25.102 11.0233 18.422C10.2773 17.047 9.76229 15.547 9.16829 14.094C9.04729 13.797 9.05529 13.445 9.00029 13.117C9.05029 10.77 10.8523 9.44501 12.6723 9.04701C13.3673 8.89101 13.9843 9.13701 14.5003 9.63301C15.9155 10.9831 17.0713 12.5812 17.9103 14.348C18.2813 15.125 18.1133 15.813 17.4803 16.391C17.3483 16.511 17.2103 16.621 17.0663 16.731C15.6213 17.816 15.4103 18.641 16.1803 20.277C17.4923 23.062 19.6723 24.934 22.4883 26.094C23.2303 26.398 23.9303 26.246 24.4963 25.644C24.5743 25.566 24.6603 25.488 24.7153 25.394C25.8253 23.543 27.4383 23.727 28.9253 24.781C29.9023 25.477 30.8523 26.211 31.8163 26.918C33.2893 28 33.2773 29.016 32.3833 30.48ZM23.1453 12C22.8163 12 22.4883 12.027 22.1653 12.082C22.0357 12.1035 21.9032 12.0994 21.7753 12.0697C21.6474 12.04 21.5265 11.9854 21.4197 11.909C21.3129 11.8327 21.2221 11.736 21.1526 11.6245C21.0832 11.5131 21.0363 11.3891 21.0148 11.2595C20.9933 11.13 20.9974 10.9974 21.0271 10.8695C21.0568 10.7416 21.1114 10.6207 21.1878 10.5139C21.2641 10.4071 21.3608 10.3163 21.4723 10.2469C21.5837 10.1774 21.7077 10.1305 21.8373 10.109C22.2663 10.035 22.7073 10 23.1453 10C27.4773 10 31.0003 13.523 31.0003 17.855C31.0003 18.297 30.9653 18.738 30.8903 19.165C30.841 19.4214 30.6935 19.6483 30.4791 19.7973C30.2648 19.9463 30.0007 20.0056 29.7432 19.9626C29.4857 19.9195 29.2553 19.7774 29.1012 19.5667C28.9471 19.356 28.8814 19.0934 28.9183 18.835C29.0591 17.9954 29.0154 17.1352 28.7903 16.3142C28.5652 15.4931 28.164 14.7309 27.6147 14.0805C27.0654 13.4302 26.381 12.9072 25.6092 12.5479C24.8374 12.1886 23.9966 12.0016 23.1453 12ZM28.0003 18C28.0003 18.55 27.5503 19 27.0003 19C26.4503 19 26.0003 18.55 26.0003 18C26.0003 16.348 24.6523 15 23.0003 15C22.4503 15 22.0003 14.55 22.0003 14C22.0003 13.45 22.4503 13 23.0003 13C25.7583 13 28.0003 15.242 28.0003 18ZM33.7103 20.223C33.6511 20.4819 33.4916 20.7066 33.2667 20.8478C33.0419 20.989 32.7701 21.0352 32.5113 20.976C32.2524 20.9169 32.0277 20.7573 31.8865 20.5325C31.7453 20.3076 31.6991 20.0359 31.7583 19.777C31.9039 19.1338 31.9773 18.4764 31.9773 17.817C31.9773 12.957 28.0203 9.00001 23.1603 9.00001C22.4963 9.00001 21.8363 9.07401 21.2003 9.21901C21.0722 9.24854 20.9396 9.25244 20.81 9.23047C20.6804 9.20851 20.5565 9.16111 20.4453 9.09102C20.3341 9.02094 20.2379 8.92953 20.1622 8.82209C20.0865 8.71465 20.0329 8.59329 20.0043 8.46501C19.9749 8.33701 19.9711 8.20447 19.9932 8.07501C20.0152 7.94554 20.0626 7.82172 20.1327 7.71065C20.2028 7.59959 20.2941 7.50348 20.4015 7.42786C20.5088 7.35223 20.6301 7.29859 20.7583 7.27001C21.5393 7.09001 22.3483 7.00001 23.1603 7.00001C29.1253 7.00001 33.9773 11.852 33.9773 17.816C33.9773 18.629 33.8873 19.438 33.7113 20.223H33.7103Z" fill="#826DFF"/>
</svg>
